<mxfile host="app.diagrams.net" modified="2024-05-19T23:16:12.452Z" agent="Mozilla/5.0 (Windows NT 10.0; Win64; x64) AppleWebKit/537.36 (KHTML, like Gecko) Chrome/124.0.0.0 Safari/537.36" version="24.4.4" etag="_M-aqpWmZVAOw9x2ElAG" type="github">
  <diagram name="ページ1" id="C2943G4_usYuksizt9p-">
    <mxGraphModel>
      <root>
        <mxCell id="0" />
        <mxCell id="1" parent="0" />
      </root>
    </mxGraphModel>
  </diagram>
</mxfile>
